<?xml version="1.0" standalone="no"?><svg xmlns="http://www.w3.org/2000/svg" viewBox="0 0 1440 320"><path fill="#0099ff" fill-opacity="0.5" d="M0,320L0,32L102.9,32L102.9,192L205.7,192L205.7,288L308.6,288L308.6,224L411.4,224L411.4,96L514.3,96L514.3,224L617.1,224L617.1,0L720,0L720,288L822.9,288L822.9,320L925.7,320L925.7,0L1028.6,0L1028.6,64L1131.4,64L1131.4,96L1234.3,96L1234.3,96L1337.1,96L1337.1,32L1440,32L1440,320L1337.1,320L1337.1,320L1234.3,320L1234.3,320L1131.4,320L1131.4,320L1028.6,320L1028.6,320L925.7,320L925.7,320L822.9,320L822.9,320L720,320L720,320L617.1,320L617.1,320L514.3,320L514.3,320L411.4,320L411.4,320L308.6,320L308.6,320L205.7,320L205.7,320L102.9,320L102.9,320L0,320L0,320Z"></path></svg>